<?xml version="1.0" standalone="no"?>
<!DOCTYPE svg PUBLIC "-//W3C//DTD SVG 20010904//EN"
 "http://www.w3.org/TR/2001/REC-SVG-20010904/DTD/svg10.dtd">
<svg version="1.0" xmlns="http://www.w3.org/2000/svg"
 width="1000.000000pt" height="1000.000000pt" viewBox="0 0 1000.000000 1000.000000"
 preserveAspectRatio="xMidYMid meet">
<metadata>
Created by potrace 1.11, written by Peter Selinger 2001-2013
</metadata>
<g transform="translate(0.000000,1000.000000) scale(0.100000,-0.100000)"
fill="#000000" stroke="none">
<path d="M4580 9899 c-1167 -101 -2241 -599 -3060 -1419 -825 -824 -1319
-1896 -1420 -3075 -5 -66 -10 -239 -10 -385 0 -146 5 -319 10 -385 101 -1179
595 -2251 1420 -3075 824 -825 1896 -1319 3075 -1420 155 -13 615 -13 770 0
1179 101 2251 595 3075 1420 825 824 1319 1896 1420 3075 13 155 13 615 0 770
-101 1179 -595 2251 -1420 3075 -824 825 -1896 1319 -3075 1420 -139 11 -646
11 -785 -1z m746 -1204 c868 -91 1658 -476 2265 -1103 573 -591 927 -1351
1014 -2176 20 -190 20 -562 0 -752 -87 -825 -441 -1585 -1014 -2176 -607 -627
-1397 -1012 -2265 -1103 -190 -20 -562 -20 -752 0 -825 87 -1585 441 -2176
1014 -627 607 -1012 1397 -1103 2265 -20 190 -20 562 0 752 108 1030 631 1949
1463 2571 520 389 1148 636 1802 707 176 19 586 20 766 1z"/>
<path d="M4672 5010 l0 -1740 344 0 c189 0 344 3 345 8 0 4 1 787 2 1740 l2
1732 -346 0 -347 0 0 -1740z"/>
<path d="M6148 6738 c-2 -7 -3 -641 -3 -1408 l1 -1395 381 -3 382 -2 3 22 c4
27 1 27 94 -6 113 -40 223 -55 369 -51 72 1 141 6 155 9 14 3 38 8 53 11 45 9
158 54 217 87 174 98 332 277 418 474 32 73 67 186 76 244 3 19 8 46 12 60 10
39 13 358 4 425 -27 210 -56 312 -127 449 -114 222 -284 354 -526 409 -47 10
-108 14 -205 12 -168 -3 -256 -24 -396 -95 -54 -28 -100 -50 -102 -50 -1 0 -3
165 -3 368 0 202 0 386 0 410 l-1 42 -399 0 c-310 0 -400 -3 -403 -12z m1193
-1340 c78 -34 113 -97 146 -258 7 -35 7 -237 0 -285 -17 -124 -48 -197 -111
-260 -62 -62 -122 -80 -271 -80 -66 0 -128 3 -137 7 -15 6 -16 43 -16 422 l1
416 55 20 c31 12 72 25 91 29 55 13 201 6 242 -11z"/>
<path d="M2720 6073 c-147 -14 -351 -78 -464 -145 -333 -196 -495 -511 -496
-963 0 -55 2 -111 4 -125 2 -14 7 -50 11 -80 9 -79 43 -207 71 -268 13 -29 24
-56 24 -60 0 -23 129 -202 187 -260 210 -208 485 -303 858 -297 177 3 208 6
315 31 195 44 375 139 501 264 131 129 247 355 274 530 3 25 10 70 14 100 24
161 4 415 -46 575 -85 273 -288 500 -541 606 -76 31 -224 73 -304 84 -48 7
-353 13 -408 8z m259 -624 c151 -32 223 -192 221 -489 -1 -216 -34 -328 -118
-408 -90 -85 -307 -79 -390 11 -71 78 -105 216 -103 427 3 365 130 515 390
459z"/>
</g>
</svg>
